<svg width="128" height="20" fill="none" xmlns="http://www.w3.org/2000/svg"><g clip-path="url(#a)" fill-rule="evenodd" clip-rule="evenodd" fill="#000"><path d="M9.974 0 7.571 7.313H0l6.249 4.666-2.404 7.44 6.13-4.666 6.248 4.665-2.403-7.44 6.128-4.665h-7.57L9.974 0Zm26.32 0L33.89 7.313H26.2l6.128 4.666-2.283 7.44 6.249-4.666 6.128 4.665-2.403-7.44 6.249-4.665h-7.691L36.294 0Zm27.278 0-2.404 7.313h-7.57l6.249 4.666-2.404 7.44 6.129-4.666 6.249 4.665-2.404-7.44 6.13-4.665h-7.572L63.572 0ZM90.97 0l-2.283 7.313h-7.69l6.128 4.666-2.404 7.44 6.25-4.666 6.128 4.665-2.283-7.44 6.249-4.665h-7.691L90.97 0Zm26.196 0-2.404 7.313h-7.571l6.129 4.666-2.283 7.44 6.129-4.666 6.249 4.665-2.404-7.44 6.129-4.665h-7.691L117.166 0Z"/></g><defs><clipPath id="a"><path fill="#fff" d="M0 0h128v20H0z"/></clipPath></defs></svg>